<svg width="324" height="65" viewBox="0 0 324 65" fill="none" xmlns="http://www.w3.org/2000/svg">
<rect x="2.33595" y="19.7739" width="48.7707" height="4.92771" rx="2.46385" transform="rotate(27.5541 2.33595 19.7739)" fill="black"/>
<rect x="22.2795" y="6.57095" width="21.3332" height="4.92771" rx="2.46385" transform="rotate(27.5541 22.2795 6.57095)" fill="black"/>
<path d="M37.484 48.528C33.836 48.528 30.716 47.808 28.124 46.368C25.532 44.928 23.532 42.912 22.124 40.32C20.748 37.696 20.06 34.608 20.06 31.056C20.06 28.4 20.444 26.016 21.212 23.904C22.012 21.76 23.164 19.936 24.668 18.432C26.172 16.896 27.996 15.712 30.14 14.88C32.316 14.048 34.764 13.632 37.484 13.632C39.084 13.632 40.7 13.84 42.332 14.256C43.996 14.64 45.436 15.2 46.652 15.936C47.452 16.384 47.996 16.944 48.284 17.616C48.572 18.288 48.652 18.96 48.524 19.632C48.428 20.304 48.156 20.88 47.708 21.36C47.292 21.84 46.764 22.144 46.124 22.272C45.484 22.4 44.764 22.256 43.964 21.84C43.004 21.264 41.996 20.848 40.94 20.592C39.884 20.336 38.812 20.208 37.724 20.208C35.58 20.208 33.772 20.64 32.3 21.504C30.86 22.336 29.772 23.552 29.036 25.152C28.3 26.752 27.932 28.72 27.932 31.056C27.932 33.36 28.3 35.328 29.036 36.96C29.772 38.592 30.86 39.84 32.3 40.704C33.772 41.536 35.58 41.952 37.724 41.952C38.748 41.952 39.788 41.824 40.844 41.568C41.932 41.312 42.972 40.912 43.964 40.368C44.796 39.952 45.532 39.808 46.172 39.936C46.844 40.032 47.388 40.32 47.804 40.8C48.252 41.248 48.524 41.792 48.62 42.432C48.748 43.072 48.684 43.712 48.428 44.352C48.172 44.992 47.692 45.536 46.988 45.984C45.804 46.784 44.348 47.408 42.62 47.856C40.892 48.304 39.18 48.528 37.484 48.528ZM60.3339 48.528C58.6059 48.528 57.0539 48.192 55.6779 47.52C54.3019 46.848 53.2299 45.936 52.4619 44.784C51.6939 43.632 51.3099 42.336 51.3099 40.896C51.3099 39.168 51.7579 37.808 52.6539 36.816C53.5499 35.792 55.0059 35.072 57.0219 34.656C59.0379 34.208 61.7099 33.984 65.0379 33.984H67.5819V37.728H65.0859C63.4539 37.728 62.1259 37.824 61.1019 38.016C60.1099 38.176 59.3899 38.464 58.9419 38.88C58.5259 39.296 58.3179 39.872 58.3179 40.608C58.3179 41.504 58.6219 42.24 59.2299 42.816C59.8699 43.392 60.7819 43.68 61.9659 43.68C62.8939 43.68 63.7099 43.472 64.4139 43.056C65.1499 42.608 65.7259 42.016 66.1419 41.28C66.5579 40.512 66.7659 39.648 66.7659 38.688V33.168C66.7659 31.76 66.4459 30.768 65.8059 30.192C65.1659 29.584 64.0779 29.28 62.5419 29.28C61.6779 29.28 60.7339 29.392 59.7099 29.616C58.7179 29.808 57.6139 30.144 56.3979 30.624C55.6939 30.944 55.0699 31.024 54.5259 30.864C53.9819 30.672 53.5659 30.352 53.2779 29.904C52.9899 29.424 52.8459 28.912 52.8459 28.368C52.8459 27.792 53.0059 27.248 53.3259 26.736C53.6459 26.192 54.1739 25.792 54.9099 25.536C56.4139 24.928 57.8219 24.512 59.1339 24.288C60.4779 24.064 61.7099 23.952 62.8299 23.952C65.2939 23.952 67.3099 24.32 68.8779 25.056C70.4779 25.76 71.6779 26.864 72.4779 28.368C73.2779 29.84 73.6779 31.744 73.6779 34.08V44.736C73.6779 45.92 73.3899 46.832 72.8139 47.472C72.2379 48.112 71.4059 48.432 70.3179 48.432C69.2299 48.432 68.3819 48.112 67.7739 47.472C67.1979 46.832 66.9099 45.92 66.9099 44.736V42.96L67.2459 43.248C67.0539 44.336 66.6379 45.28 65.9979 46.08C65.3899 46.848 64.6059 47.456 63.6459 47.904C62.6859 48.32 61.5819 48.528 60.3339 48.528ZM82.8286 48.432C81.6126 48.432 80.6846 48.112 80.0446 47.472C79.4046 46.832 79.0846 45.92 79.0846 44.736V27.696C79.0846 26.512 79.3886 25.616 79.9966 25.008C80.6366 24.368 81.5166 24.048 82.6366 24.048C83.7886 24.048 84.6686 24.368 85.2766 25.008C85.8846 25.616 86.1886 26.512 86.1886 27.696V30.192H85.7086C86.0926 28.272 86.9406 26.784 88.2526 25.728C89.5646 24.672 91.2606 24.08 93.3406 23.952C94.1406 23.888 94.7486 24.096 95.1646 24.576C95.6126 25.024 95.8526 25.776 95.8846 26.832C95.9486 27.824 95.7406 28.608 95.2606 29.184C94.8126 29.76 94.0446 30.112 92.9566 30.24L91.8526 30.336C90.0286 30.496 88.6686 31.024 87.7726 31.92C86.9086 32.816 86.4766 34.112 86.4766 35.808V44.736C86.4766 45.92 86.1566 46.832 85.5166 47.472C84.9086 48.112 84.0126 48.432 82.8286 48.432ZM107.656 48.528C106.248 48.528 104.792 48.4 103.288 48.144C101.816 47.888 100.472 47.456 99.2555 46.848C98.6155 46.528 98.1515 46.128 97.8635 45.648C97.6075 45.136 97.4955 44.624 97.5275 44.112C97.5595 43.6 97.7195 43.136 98.0075 42.72C98.3275 42.304 98.7275 42.032 99.2075 41.904C99.7195 41.744 100.28 41.792 100.888 42.048C102.2 42.592 103.4 42.976 104.488 43.2C105.576 43.424 106.648 43.536 107.704 43.536C109.08 43.536 110.072 43.328 110.68 42.912C111.32 42.464 111.64 41.888 111.64 41.184C111.64 40.544 111.432 40.064 111.016 39.744C110.6 39.424 109.992 39.2 109.192 39.072L104.152 38.16C102.168 37.808 100.632 37.088 99.5435 36C98.4875 34.88 97.9595 33.456 97.9595 31.728C97.9595 30.128 98.4075 28.752 99.3035 27.6C100.2 26.416 101.432 25.52 103 24.912C104.6 24.272 106.408 23.952 108.424 23.952C109.864 23.952 111.192 24.08 112.408 24.336C113.624 24.592 114.792 25.008 115.912 25.584C116.488 25.872 116.888 26.256 117.112 26.736C117.368 27.216 117.448 27.712 117.352 28.224C117.288 28.736 117.096 29.2 116.776 29.616C116.456 30.032 116.04 30.304 115.528 30.432C115.048 30.56 114.488 30.496 113.848 30.24C112.824 29.76 111.88 29.424 111.016 29.232C110.152 29.008 109.32 28.896 108.52 28.896C107.08 28.896 106.04 29.136 105.4 29.616C104.76 30.064 104.44 30.64 104.44 31.344C104.44 31.888 104.616 32.352 104.968 32.736C105.352 33.088 105.928 33.328 106.696 33.456L111.736 34.368C113.816 34.72 115.4 35.424 116.488 36.48C117.576 37.504 118.12 38.912 118.12 40.704C118.12 43.136 117.16 45.056 115.24 46.464C113.352 47.84 110.824 48.528 107.656 48.528ZM140.031 48.432C138.815 48.432 137.887 48.096 137.247 47.424C136.607 46.752 136.287 45.808 136.287 44.592V17.952C136.287 16.704 136.607 15.76 137.247 15.12C137.919 14.48 138.863 14.16 140.079 14.16H151.743C155.519 14.16 158.431 15.072 160.479 16.896C162.527 18.72 163.551 21.264 163.551 24.528C163.551 26.64 163.087 28.464 162.159 30C161.231 31.536 159.887 32.72 158.127 33.552C156.399 34.384 154.271 34.8 151.743 34.8L152.127 33.984H154.095C155.439 33.984 156.607 34.32 157.599 34.992C158.623 35.632 159.503 36.624 160.239 37.968L163.215 43.488C163.663 44.288 163.871 45.072 163.839 45.84C163.807 46.608 163.519 47.232 162.975 47.712C162.431 48.192 161.631 48.432 160.575 48.432C159.519 48.432 158.655 48.208 157.983 47.76C157.343 47.312 156.767 46.624 156.255 45.696L151.647 37.2C151.167 36.304 150.575 35.696 149.871 35.376C149.199 35.056 148.367 34.896 147.375 34.896H143.727V44.592C143.727 45.808 143.407 46.752 142.767 47.424C142.159 48.096 141.247 48.432 140.031 48.432ZM143.727 29.52H150.399C152.383 29.52 153.871 29.12 154.863 28.32C155.887 27.52 156.399 26.32 156.399 24.72C156.399 23.152 155.887 21.968 154.863 21.168C153.871 20.368 152.383 19.968 150.399 19.968H143.727V29.52ZM180.668 48.528C177.884 48.528 175.484 48.032 173.468 47.04C171.484 46.016 169.948 44.592 168.86 42.768C167.804 40.912 167.276 38.736 167.276 36.24C167.276 33.808 167.788 31.68 168.812 29.856C169.836 28 171.26 26.56 173.084 25.536C174.94 24.48 177.036 23.952 179.372 23.952C181.068 23.952 182.604 24.24 183.98 24.816C185.356 25.36 186.54 26.16 187.532 27.216C188.524 28.24 189.276 29.504 189.788 31.008C190.3 32.48 190.556 34.128 190.556 35.952C190.556 36.56 190.364 37.024 189.98 37.344C189.596 37.632 189.036 37.776 188.3 37.776H173.228V34.032H185.324L184.556 34.704C184.556 33.392 184.364 32.304 183.98 31.44C183.596 30.544 183.036 29.872 182.3 29.424C181.596 28.976 180.716 28.752 179.66 28.752C178.476 28.752 177.468 29.024 176.636 29.568C175.804 30.112 175.164 30.896 174.716 31.92C174.268 32.944 174.044 34.176 174.044 35.616V36C174.044 38.432 174.604 40.224 175.724 41.376C176.876 42.528 178.572 43.104 180.812 43.104C181.58 43.104 182.46 43.008 183.452 42.816C184.444 42.624 185.372 42.32 186.236 41.904C186.972 41.552 187.628 41.44 188.204 41.568C188.78 41.664 189.228 41.92 189.548 42.336C189.868 42.752 190.044 43.232 190.076 43.776C190.14 44.32 190.028 44.864 189.74 45.408C189.452 45.92 188.972 46.352 188.3 46.704C187.212 47.312 185.98 47.76 184.604 48.048C183.26 48.368 181.948 48.528 180.668 48.528ZM206.1 57.168C204.372 57.168 202.708 57.024 201.108 56.736C199.54 56.448 198.148 56.016 196.932 55.44C196.196 55.12 195.668 54.704 195.348 54.192C195.06 53.68 194.932 53.136 194.964 52.56C195.028 51.984 195.22 51.472 195.54 51.024C195.892 50.576 196.324 50.256 196.836 50.064C197.348 49.904 197.892 49.952 198.468 50.208C199.876 50.848 201.172 51.264 202.356 51.456C203.572 51.648 204.612 51.744 205.476 51.744C207.524 51.744 209.06 51.28 210.084 50.352C211.108 49.424 211.62 48 211.62 46.08V42.432H212.052C211.572 43.904 210.58 45.104 209.076 46.032C207.572 46.96 205.908 47.424 204.084 47.424C201.972 47.424 200.132 46.944 198.564 45.984C196.996 44.992 195.78 43.616 194.916 41.856C194.052 40.064 193.62 38 193.62 35.664C193.62 33.904 193.86 32.304 194.34 30.864C194.852 29.424 195.556 28.192 196.452 27.168C197.38 26.144 198.484 25.36 199.764 24.816C201.076 24.24 202.516 23.952 204.084 23.952C205.972 23.952 207.636 24.416 209.076 25.344C210.548 26.24 211.524 27.424 212.004 28.896L211.524 30.432V27.696C211.524 26.512 211.828 25.616 212.436 25.008C213.076 24.368 213.972 24.048 215.124 24.048C216.276 24.048 217.156 24.368 217.764 25.008C218.372 25.616 218.676 26.512 218.676 27.696V45.264C218.676 49.2 217.588 52.16 215.412 54.144C213.268 56.16 210.164 57.168 206.1 57.168ZM206.244 42C207.332 42 208.26 41.744 209.028 41.232C209.828 40.72 210.452 40 210.9 39.072C211.348 38.112 211.572 36.976 211.572 35.664C211.572 33.68 211.076 32.144 210.084 31.056C209.124 29.936 207.844 29.376 206.244 29.376C205.156 29.376 204.212 29.632 203.412 30.144C202.612 30.624 201.988 31.344 201.54 32.304C201.124 33.232 200.916 34.352 200.916 35.664C200.916 37.648 201.396 39.2 202.356 40.32C203.316 41.44 204.612 42 206.244 42ZM227.951 48.384C226.767 48.384 225.855 48.048 225.215 47.376C224.607 46.672 224.303 45.696 224.303 44.448V28.032C224.303 26.752 224.607 25.776 225.215 25.104C225.855 24.4 226.767 24.048 227.951 24.048C229.103 24.048 229.983 24.4 230.591 25.104C231.231 25.776 231.551 26.752 231.551 28.032V44.448C231.551 45.696 231.247 46.672 230.639 47.376C230.031 48.048 229.135 48.384 227.951 48.384ZM227.951 20.112C226.607 20.112 225.567 19.808 224.831 19.2C224.127 18.56 223.775 17.664 223.775 16.512C223.775 15.328 224.127 14.432 224.831 13.824C225.567 13.184 226.607 12.864 227.951 12.864C229.295 12.864 230.319 13.184 231.023 13.824C231.727 14.432 232.079 15.328 232.079 16.512C232.079 17.664 231.727 18.56 231.023 19.2C230.319 19.808 229.295 20.112 227.951 20.112ZM246.171 48.528C244.763 48.528 243.307 48.4 241.803 48.144C240.331 47.888 238.987 47.456 237.771 46.848C237.131 46.528 236.667 46.128 236.379 45.648C236.123 45.136 236.011 44.624 236.043 44.112C236.075 43.6 236.235 43.136 236.523 42.72C236.843 42.304 237.243 42.032 237.723 41.904C238.235 41.744 238.795 41.792 239.403 42.048C240.715 42.592 241.915 42.976 243.003 43.2C244.091 43.424 245.163 43.536 246.219 43.536C247.595 43.536 248.587 43.328 249.195 42.912C249.835 42.464 250.155 41.888 250.155 41.184C250.155 40.544 249.947 40.064 249.531 39.744C249.115 39.424 248.507 39.2 247.707 39.072L242.667 38.16C240.683 37.808 239.147 37.088 238.059 36C237.003 34.88 236.475 33.456 236.475 31.728C236.475 30.128 236.923 28.752 237.819 27.6C238.715 26.416 239.947 25.52 241.515 24.912C243.115 24.272 244.923 23.952 246.939 23.952C248.379 23.952 249.707 24.08 250.923 24.336C252.139 24.592 253.307 25.008 254.427 25.584C255.003 25.872 255.403 26.256 255.627 26.736C255.883 27.216 255.963 27.712 255.867 28.224C255.803 28.736 255.611 29.2 255.291 29.616C254.971 30.032 254.555 30.304 254.043 30.432C253.563 30.56 253.003 30.496 252.363 30.24C251.339 29.76 250.395 29.424 249.531 29.232C248.667 29.008 247.835 28.896 247.035 28.896C245.595 28.896 244.555 29.136 243.915 29.616C243.275 30.064 242.955 30.64 242.955 31.344C242.955 31.888 243.131 32.352 243.483 32.736C243.867 33.088 244.443 33.328 245.211 33.456L250.251 34.368C252.331 34.72 253.915 35.424 255.003 36.48C256.091 37.504 256.635 38.912 256.635 40.704C256.635 43.136 255.675 45.056 253.755 46.464C251.867 47.84 249.339 48.528 246.171 48.528ZM272.106 48.528C269.898 48.528 268.042 48.16 266.538 47.424C265.066 46.688 263.962 45.616 263.226 44.208C262.522 42.8 262.17 41.024 262.17 38.88V29.856H260.154C259.258 29.856 258.554 29.616 258.042 29.136C257.562 28.656 257.322 28 257.322 27.168C257.322 26.272 257.562 25.6 258.042 25.152C258.554 24.672 259.258 24.432 260.154 24.432H262.17V20.784C262.17 19.568 262.49 18.656 263.13 18.048C263.77 17.408 264.666 17.088 265.818 17.088C267.002 17.088 267.898 17.408 268.506 18.048C269.114 18.656 269.418 19.568 269.418 20.784V24.432H273.978C274.874 24.432 275.562 24.672 276.042 25.152C276.522 25.6 276.762 26.272 276.762 27.168C276.762 28 276.522 28.656 276.042 29.136C275.562 29.616 274.874 29.856 273.978 29.856H269.418V38.592C269.418 39.936 269.722 40.944 270.33 41.616C270.97 42.288 271.978 42.624 273.354 42.624C273.834 42.624 274.282 42.576 274.698 42.48C275.114 42.384 275.498 42.32 275.85 42.288C276.298 42.256 276.666 42.4 276.954 42.72C277.242 43.008 277.386 43.664 277.386 44.688C277.386 45.456 277.258 46.128 277.002 46.704C276.746 47.28 276.298 47.696 275.658 47.952C275.242 48.112 274.666 48.24 273.93 48.336C273.226 48.464 272.618 48.528 272.106 48.528ZM291.95 48.528C289.166 48.528 286.766 48.032 284.75 47.04C282.766 46.016 281.23 44.592 280.142 42.768C279.086 40.912 278.558 38.736 278.558 36.24C278.558 33.808 279.07 31.68 280.094 29.856C281.118 28 282.542 26.56 284.366 25.536C286.222 24.48 288.318 23.952 290.654 23.952C292.35 23.952 293.886 24.24 295.262 24.816C296.638 25.36 297.822 26.16 298.814 27.216C299.806 28.24 300.558 29.504 301.07 31.008C301.582 32.48 301.838 34.128 301.838 35.952C301.838 36.56 301.646 37.024 301.262 37.344C300.878 37.632 300.318 37.776 299.582 37.776H284.51V34.032H296.606L295.838 34.704C295.838 33.392 295.646 32.304 295.262 31.44C294.878 30.544 294.318 29.872 293.582 29.424C292.878 28.976 291.998 28.752 290.942 28.752C289.758 28.752 288.75 29.024 287.918 29.568C287.086 30.112 286.446 30.896 285.998 31.92C285.55 32.944 285.326 34.176 285.326 35.616V36C285.326 38.432 285.886 40.224 287.006 41.376C288.158 42.528 289.854 43.104 292.094 43.104C292.862 43.104 293.742 43.008 294.734 42.816C295.726 42.624 296.654 42.32 297.518 41.904C298.254 41.552 298.91 41.44 299.486 41.568C300.062 41.664 300.51 41.92 300.83 42.336C301.15 42.752 301.326 43.232 301.358 43.776C301.422 44.32 301.31 44.864 301.022 45.408C300.734 45.92 300.254 46.352 299.582 46.704C298.494 47.312 297.262 47.76 295.886 48.048C294.542 48.368 293.23 48.528 291.95 48.528ZM309.797 48.432C308.581 48.432 307.653 48.112 307.013 47.472C306.373 46.832 306.053 45.92 306.053 44.736V27.696C306.053 26.512 306.357 25.616 306.965 25.008C307.605 24.368 308.485 24.048 309.605 24.048C310.757 24.048 311.637 24.368 312.245 25.008C312.853 25.616 313.157 26.512 313.157 27.696V30.192H312.677C313.061 28.272 313.909 26.784 315.221 25.728C316.533 24.672 318.229 24.08 320.309 23.952C321.109 23.888 321.717 24.096 322.133 24.576C322.581 25.024 322.821 25.776 322.853 26.832C322.917 27.824 322.709 28.608 322.229 29.184C321.781 29.76 321.013 30.112 319.925 30.24L318.821 30.336C316.997 30.496 315.637 31.024 314.741 31.92C313.877 32.816 313.445 34.112 313.445 35.808V44.736C313.445 45.92 313.125 46.832 312.485 47.472C311.877 48.112 310.981 48.432 309.797 48.432Z" fill="#038C73"/>
<rect x="17.1009" y="12" width="13.125" height="2.37992" rx="1.18996" transform="rotate(27.5541 17.1009 12)" fill="black"/>
<rect x="3.10095" y="27" width="13.125" height="2.37992" rx="1.18996" transform="rotate(27.5541 3.10095 27)" fill="black"/>
<rect x="24.101" y="47" width="13.125" height="2.37992" rx="1.18996" transform="rotate(27.5541 24.101 47)" fill="black"/>
<rect x="31.101" y="31" width="13.125" height="2.37992" rx="1.18996" transform="rotate(27.5541 31.101 31)" fill="black"/>
<rect x="14.4355" y="35" width="38" height="4.92771" rx="2.46385" transform="rotate(27.5541 14.4355 35)" fill="black"/>
<rect x="9.2795" y="14.571" width="21.3332" height="4.92771" rx="2.46385" transform="rotate(27.5541 9.2795 14.571)" fill="black"/>
</svg>
