<svg width="51" height="65" viewBox="0 0 51 65" fill="none" xmlns="http://www.w3.org/2000/svg">
<rect x="2.33595" y="19.7739" width="48.7707" height="4.92771" rx="2.46385" transform="rotate(27.5541 2.33595 19.7739)" fill="black"/>
<rect x="22.2795" y="6.57095" width="21.3332" height="4.92771" rx="2.46385" transform="rotate(27.5541 22.2795 6.57095)" fill="black"/>
<path d="M37.484 48.528C33.836 48.528 30.716 47.808 28.124 46.368C25.532 44.928 23.532 42.912 22.124 40.32C20.748 37.696 20.06 34.608 20.06 31.056C20.06 28.4 20.444 26.016 21.212 23.904C22.012 21.76 23.164 19.936 24.668 18.432C26.172 16.896 27.996 15.712 30.14 14.88C32.316 14.048 34.764 13.632 37.484 13.632C39.084 13.632 40.7 13.84 42.332 14.256C43.996 14.64 45.436 15.2 46.652 15.936C47.452 16.384 47.996 16.944 48.284 17.616C48.572 18.288 48.652 18.96 48.524 19.632C48.428 20.304 48.156 20.88 47.708 21.36C47.292 21.84 46.764 22.144 46.124 22.272C45.484 22.4 44.764 22.256 43.964 21.84C43.004 21.264 41.996 20.848 40.94 20.592C39.884 20.336 38.812 20.208 37.724 20.208C35.58 20.208 33.772 20.64 32.3 21.504C30.86 22.336 29.772 23.552 29.036 25.152C28.3 26.752 27.932 28.72 27.932 31.056C27.932 33.36 28.3 35.328 29.036 36.96C29.772 38.592 30.86 39.84 32.3 40.704C33.772 41.536 35.58 41.952 37.724 41.952C38.748 41.952 39.788 41.824 40.844 41.568C41.932 41.312 42.972 40.912 43.964 40.368C44.796 39.952 45.532 39.808 46.172 39.936C46.844 40.032 47.388 40.32 47.804 40.8C48.252 41.248 48.524 41.792 48.62 42.432C48.748 43.072 48.684 43.712 48.428 44.352C48.172 44.992 47.692 45.536 46.988 45.984C45.804 46.784 44.348 47.408 42.62 47.856C40.892 48.304 39.18 48.528 37.484 48.528Z" fill="#038C73"/>
<rect x="17.1009" y="12" width="13.125" height="2.37992" rx="1.18996" transform="rotate(27.5541 17.1009 12)" fill="black"/>
<rect x="3.10095" y="27" width="13.125" height="2.37992" rx="1.18996" transform="rotate(27.5541 3.10095 27)" fill="black"/>
<rect x="24.101" y="47" width="13.125" height="2.37992" rx="1.18996" transform="rotate(27.5541 24.101 47)" fill="black"/>
<rect x="31.101" y="31" width="13.125" height="2.37992" rx="1.18996" transform="rotate(27.5541 31.101 31)" fill="black"/>
<rect x="14.4355" y="35" width="38" height="4.92771" rx="2.46385" transform="rotate(27.5541 14.4355 35)" fill="black"/>
<rect x="9.2795" y="14.571" width="21.3332" height="4.92771" rx="2.46385" transform="rotate(27.5541 9.2795 14.571)" fill="black"/>
</svg>
